<?xml version="1.0" encoding="utf-8"?>
<!-- Generator: Adobe Illustrator 23.0.5, SVG Export Plug-In . SVG Version: 6.00 Build 0)  -->
<svg version="1.1" id="Gopher" xmlns="http://www.w3.org/2000/svg" xmlns:xlink="http://www.w3.org/1999/xlink" x="0px" y="0px"
	 viewBox="0 0 1224 792" style="enable-background:new 0 0 1224 792;" xml:space="preserve">
<style type="text/css">
	.st0{fill:#F4D5B8;}
	.st1{fill:#010202;}
	.st2{fill:#B6D8D4;}
	.st3{fill:#FFFFFF;}
	.st4{fill:#010202;stroke:#000000;stroke-miterlimit:10;}
	.st5{fill:#FFFFFF;stroke:#000000;stroke-miterlimit:10;}
	.st6{fill:#CEE9EC;}
	.st7{fill:#030406;}
	.st8{fill:#9B8E7D;}
</style>
<g>
	<g id="Hand_R">
		<path class="st0" d="M740.31,404.99c0,0,11.51,0.41,21.49-3.78c9.98-4.19,23.65-8.01,21.39-22.58
			c-1.39-8.96-22.92-4.35-22.92-4.35s-15.76,5.82-26.23,5.23"/>
		<g>
			<path class="st1" d="M740.31,406.49c11.19,0.32,21.68-3.31,31.7-7.96c4.58-2.13,8.77-5.08,11.26-9.57
				c1.95-3.52,2.85-10.01,0.21-13.4c-4.63-5.95-15.52-4.09-21.92-3.04c-9.36,1.55-17.69,5.81-27.52,5.49c-1.94-0.06-1.93,2.94,0,3
				c14.63,0.48,28.06-8.83,42.77-5.92c6.05,1.2,6.04,7.56,3.87,12.36c-2.03,4.5-6.99,7.01-11.23,8.98
				c-9.18,4.26-18.9,7.36-29.13,7.06C738.37,403.43,738.38,406.44,740.31,406.49L740.31,406.49z"/>
		</g>
	</g>
	<g id="Ear_R">
		<path class="st2" d="M636.23,210.47c0,0,0.25-26.25,14.25-26s8.25,30.5,8.25,30.5"/>
		<g>
			<path class="st1" d="M637.73,210.47c0.11-8.05,2.71-27.26,14.66-24.2c9.03,2.31,6.11,21.76,4.89,28.3
				c-0.35,1.89,2.54,2.7,2.89,0.8c1.69-9.02,4.35-29.09-7.71-32.18c-13.96-3.58-17.61,17.92-17.74,27.28
				C634.71,212.4,637.71,212.4,637.73,210.47L637.73,210.47z"/>
		</g>
	</g>
	<g id="Feet_R">
		<path class="st0" d="M642.43,574.3c0,0,19.75,34.12,30.37,27.44c10.62-6.69-13.69-35.48-13.69-35.48"/>
		<g>
			<path class="st1" d="M641.14,575.06c3.53,6.07,7.61,11.88,12.07,17.3c4.32,5.25,12.05,14.28,19.82,10.98
				c7.74-3.29,2.42-14.75-0.11-19.61c-3.43-6.61-7.95-12.83-12.74-18.52c-1.25-1.48-3.36,0.65-2.12,2.12
				c3.84,4.57,24.08,30.25,12.7,33.68c-6.67,2.01-15-10.07-18.24-14.33c-3.18-4.18-6.14-8.58-8.78-13.13
				C642.75,571.87,640.16,573.38,641.14,575.06L641.14,575.06z"/>
		</g>
	</g>
	<g id="Tail">
		<path class="st2" d="M471.23,509.71c-13.25-1.5-13.25-3.25-20-1.5s-25,13-18,18.25s7.75,7,17,5.5s28.5-5.75,28.5-5.75"/>
		<g>
			<path class="st1" d="M471.23,508.21c-8.84-1.06-16.01-3.63-24.49,0.1c-5.38,2.37-17.4,8.63-16.51,16
				c0.43,3.57,5.61,6.18,8.26,7.88c3.94,2.54,8.74,1.77,13.1,1.05c9.23-1.53,18.4-3.58,27.54-5.59c1.89-0.42,1.09-3.31-0.8-2.89
				c-6.08,1.34-12.16,2.62-18.26,3.85c-4.69,0.94-9.46,2.02-14.24,2.35c-4.78,0.33-8.7-3.1-12.1-6.05
				c-4.71-4.09,13.85-13.82,16.56-14.83c6.67-2.5,14.18,0.33,20.95,1.13C473.15,511.44,473.13,508.44,471.23,508.21L471.23,508.21z"
				/>
		</g>
	</g>
	<g id="Eye_R">
		<g>
			<ellipse class="st3" cx="747.04" cy="291.12" rx="45.3" ry="43"/>
			<g>
				<path class="st1" d="M790.84,291.12c-0.39,23.82-20.63,41.16-43.8,41.5c-23.17,0.34-43.42-18.19-43.8-41.5
					c-0.39-23.82,21.23-41.17,43.8-41.5C770.21,249.28,790.46,267.81,790.84,291.12c0.03,1.93,3.03,1.94,3,0
					c-0.35-21.48-15.95-38.79-36.6-43.44c-20.86-4.69-43.11,5.7-52.7,24.76c-9.5,18.89-2.53,41.22,13.7,53.75
					c16.85,13,42.53,12.4,58.93-1.04c10.37-8.49,16.45-20.61,16.67-34.04C793.87,289.19,790.87,289.19,790.84,291.12z"/>
			</g>
		</g>
		<ellipse class="st4" cx="780.67" cy="290.64" rx="11.67" ry="11.34"/>
		<path class="st5" d="M783.5,289.79c0,2.04-1.66,3.69-3.71,3.69c-2.05,0-3.71-1.65-3.71-3.69c0-2.04,1.66-3.69,3.71-3.69
			C781.84,286.1,783.5,287.75,783.5,289.79z"/>
	</g>
	<g id="Body">
		<path class="st2" d="M483.6,297.47c0.91-13.01,22-58,58-74s50-16,85-19s88,28,98,41s17,24.8,19,42.4c2,17.6,2,25.6,5,43.6
			c3,18-1,87-12,113c-7.27,17.19-18.48,59.74-42.88,92.96c-12.5,17.02-28.46,31.59-49.12,39.04c-61,22-97.01,9.36-106,9
			c-25.9-1.03-31.27-8.47-61-44c-17.99-21.5-20.86-47.24-20.86-65.25c0-21.88,30-73.75,31-103.75
			C489.51,319.11,481.13,332.8,483.6,297.47z"/>
		<g>
			<path class="st1" d="M485.1,297.47c0.55-6.49,3.57-12.98,6.32-18.77c4.35-9.17,9.88-17.82,16.18-25.76
				c7.12-8.96,15.55-16.9,25.21-23.07c11.1-7.08,24.29-11.68,36.81-15.54c10.64-3.29,21.59-5.08,32.64-6.23
				c11.48-1.2,23.4-2.93,34.95-2.08c22.34,1.64,44.48,11.83,63.52,23.06c7.17,4.23,14.35,8.91,20.35,14.73
				c7.85,7.62,14,18.8,17.64,29.01c4.46,12.51,4.45,26.39,5.78,39.48c0.95,9.37,2.95,18.62,3.39,28.03
				c0.9,19.39-0.69,39.08-2.95,58.32c-1.22,10.37-2.84,20.71-5.25,30.88c-1.79,7.58-4.71,14.6-7.39,21.88
				c-17.02,46.27-35.46,101.96-85.12,122.48c-23.4,9.67-49.8,14.53-75.09,13.97c-7.49-0.17-14.94-0.95-22.33-2.16
				c-4.08-0.66-8.13-1.6-12.27-1.78c-7.77-0.34-15.4-1.59-22.24-5.45c-7.67-4.32-13.74-11.33-19.5-17.85
				c-9.36-10.6-19.42-21.36-26.25-33.8c-6.26-11.38-9.4-24.31-10.67-37.16c-0.89-9.02-0.79-17.49,1.57-26.25
				c2.68-9.96,6.61-19.6,10.37-29.19c7.58-19.36,17.08-39.71,18.41-60.75c0.93-14.7,0.73-30.02-2.11-44.52
				C485,318.31,484.36,308.35,485.1,297.47c0.13-1.93-2.87-1.92-3,0c-0.49,7.3-0.78,14.66,0.17,21.94c0.62,4.73,1.81,9.36,2.6,14.06
				c3.29,19.54,2.87,40.99-2.53,60.05c-6.08,21.45-15.92,41.61-22.89,62.76c-6.07,18.41-4.82,37.46,0.76,55.95
				c3.78,12.53,10.49,23.31,18.83,33.29c7.63,9.13,15.11,18.5,23.62,26.84c5.05,4.95,10.69,9.12,17.34,11.61
				c6.44,2.42,13.12,2.39,19.85,3.12c12.76,1.37,24.94,3.9,37.9,3.83c24.83-0.14,50.79-5.63,73.54-15.52
				c46.59-20.24,66.41-73.96,82.16-118.27c2.58-7.25,5.73-14.32,7.84-21.72c2.67-9.35,4.26-19.02,5.62-28.64
				c2.81-19.85,4.32-40.04,4.16-60.09c-0.06-7.75-1-15.1-2.12-22.74c-1.86-12.65-2.25-25.48-4.09-38.13
				c-2.81-19.36-13.25-38.32-28.9-50.23c-16.35-12.43-35.84-21.73-55.39-27.82c-9.84-3.07-20.16-5.1-30.5-4.95
				c-11.78,0.17-23.91,1.7-35.59,3.21c-14.33,1.85-28.05,5.75-41.48,11.05c-14.63,5.77-27.46,12.83-38.71,23.94
				c-9.51,9.39-17.32,20.59-23.54,32.4c-3.85,7.32-7.91,15.71-8.63,24.09C481.93,299.39,484.93,299.38,485.1,297.47z"/>
		</g>
	</g>
	<g>
		<path class="st0" d="M513.23,573.96c0,0-10.5,31.75,5.5,33.5s17.5-29.25,17.5-29.25"/>
		<g>
			<path class="st1" d="M511.79,573.57c-3.18,9.7-8.66,33.09,6.55,35.34c14.92,2.21,18.85-20.09,19.4-30.7c0.1-1.93-2.9-1.92-3,0
				c-0.47,9.18-3.56,29.59-16.46,27.68c-12-1.78-5.97-24.27-3.59-31.53C515.28,572.52,512.39,571.74,511.79,573.57L511.79,573.57z"
				/>
		</g>
	</g>
	<g>
		<path class="st2" d="M510.05,569.63c0,0,2.36,11.88,7.24,15.04c0,0,0.88-8.5,1.71-8.83s12.17,9,10.5,10.33s9.69-5.9,9.68-9.2"/>
		<g>
			<path class="st1" d="M508.6,570.02c1.16,5.64,3.16,12.34,7.93,15.94c1.01,0.76,2.15-0.31,2.26-1.29
				c0.16-1.47,0.35-2.93,0.57-4.39c0.14-0.91,0.32-1.81,0.52-2.71c0.22-0.97-1.29-0.46,0.16,0.54c1.25,0.86,8.1,7.28,8.25,7.14
				c-0.37,0.32-0.56,0.99-0.39,1.46c0,0.01,0.01,0.02,0.01,0.03c0.35,0.95,1.28,1.34,2.2,0.9c3.52-1.71,9.9-6.1,10.51-10.26
				c0.28-1.89-2.61-2.71-2.89-0.8c-0.48,3.29-6.32,7.09-9.13,8.46c0.73,0.3,1.47,0.6,2.2,0.9c0.3,0.83-0.6,1.88,0.14,0.78
				c0.21-0.31,0.2-0.7,0.21-1.06c0.03-1.05-0.9-2.17-1.53-2.91c-2.35-2.75-5.16-5.11-8.08-7.23c-5.48-3.99-5.4,5.71-5.76,9.16
				c0.75-0.43,1.5-0.86,2.26-1.29c-4.03-3.04-5.58-9.41-6.55-14.15C511.1,567.33,508.21,568.14,508.6,570.02L508.6,570.02z"/>
		</g>
	</g>
	<path id="Belly" class="st6" d="M639.67,557.45c-20.67-11.11-21.14-27.75-5-48.45c11.87-15.21,25.33-30.33,32.73-74
		c3.93-23.21,26.82-50.57,48.04-48.95c21.22,1.62,31.21,24.16,23.43,45.75c-7.78,21.59-36.11,104.48-56.49,115.17
		C682.38,546.97,658.46,567.56,639.67,557.45z"/>
	<g id="Eye_L">
		<g>
			<path class="st3" d="M689.34,301.47c0,28.17-24.39,51-54.47,51c-30.08,0-54.47-22.83-54.47-51s24.39-51,54.47-51
				C664.95,250.47,689.34,273.3,689.34,301.47z"/>
			<g>
				<path d="M687.84,301.47c-0.35,24.96-19.5,44.27-43.42,48.71c-24.46,4.53-50.44-8.91-59.53-32.25
					c-9.02-23.17,2.99-48.19,24.03-59.62c21.99-11.94,50.47-6.53,67.03,11.91C683.64,278.77,687.68,290.03,687.84,301.47
					c0.03,1.93,3.03,1.94,3,0c-0.3-21.47-13.84-39.74-33.38-48.03c-19.99-8.48-43.6-4.57-60.21,9.17
					c-16.35,13.53-22.38,36.24-15.25,56.12c7.16,19.96,26.59,32.7,47.13,34.97c31.19,3.45,61.27-20.26,61.71-52.22
					C690.87,299.53,687.87,299.53,687.84,301.47z"/>
			</g>
		</g>
		<ellipse class="st4" cx="650.73" cy="294.13" rx="17.67" ry="16"/>
		<path class="st5" d="M650.73,289.48c0,2.57-2.09,4.65-4.67,4.65s-4.67-2.08-4.67-4.65c0-2.57,2.09-4.65,4.67-4.65
			S650.73,286.92,650.73,289.48z"/>
	</g>
	<g>
		<path class="st2" d="M527.73,251.47l-19.67-25c0,0-9.83-15.91,5.5-22.2c15.33-6.3,25.83,5.87,26.67,7.04s13.17,19.83,13.17,19.83"
			/>
		<g>
			<path class="st1" d="M528.79,250.4c-5.04-6.4-10.07-12.8-15.1-19.2c-4.1-5.21-8.24-9.81-7.05-17.41
				c1.35-8.6,13.06-10.77,20.07-9.32c4.47,0.92,9.43,3.89,12.23,7.58c4.77,6.29,8.82,13.25,13.17,19.83
				c1.06,1.61,3.66,0.11,2.59-1.51c-4.57-6.92-8.66-14.97-14.24-21.12c-3.97-4.37-9.54-7.24-15.35-8.1
				c-6.52-0.96-15.65,1.35-19.41,7.23c-4.27,6.69-1.81,15.16,2.77,20.98c6.07,7.72,12.14,15.43,18.21,23.15
				C527.87,254.05,529.98,251.91,528.79,250.4L528.79,250.4z"/>
		</g>
	</g>
	<g>
		<path class="st7" d="M525.23,219.63c0,0-0.1,9,3.95,13c4.05,4,7.72,6.83,9.72,5.33s-3.5-12.5-5.83-13.83
			C530.73,222.8,529.23,219.13,525.23,219.63z"/>
		<g>
			<path d="M523.73,219.63c-0.02,4.49,0.86,9.5,3.6,13.15c1.34,1.79,10.63,10.98,13.06,5.72c1.72-3.72-1.79-9.28-3.67-12.33
				c-1.19-1.93-2.65-2.93-4.25-4.44c-2.22-2.1-4.02-3.75-7.25-3.6c-1.93,0.08-1.94,3.09,0,3c2.77-0.12,6.46,3.23,8.16,5.46
				c1.95,2.57,3.42,5.76,4.25,8.87c0.84,3.15-3.75-0.58-4.46-1.16c-2.21-1.82-4.08-3.7-5.12-6.4c-0.99-2.58-1.35-5.52-1.34-8.27
				C526.74,217.7,523.74,217.7,523.73,219.63z"/>
		</g>
	</g>
	<g id="Nose">
		<g>
			<path class="st8" d="M748.31,298.95c0,7.28-8.21,13.18-18.33,13.18s-18.33-5.9-18.33-13.18c0-7.28,8.21-13.18,18.33-13.18
				S748.31,291.67,748.31,298.95z"/>
			<g>
				<path class="st1" d="M746.81,298.95c-0.93,15.76-32.73,15.76-33.67,0c-0.49-8.28,10.56-11.49,16.83-11.68
					C737.01,287.05,746.34,290.94,746.81,298.95c0.11,1.92,3.11,1.93,3,0c-1.16-19.66-38.5-19.66-39.67,0
					c-0.59,10.03,11.93,14.44,19.83,14.68c8.85,0.27,19.26-4.99,19.83-14.68C749.92,297.01,746.92,297.03,746.81,298.95z"/>
			</g>
		</g>
		<g>
			<path class="st3" d="M716.51,330.04v24.75c0,0-1.38,3.44,8.27,3.93c9.65,0.49,10.75,0,10.75,0s4.96,1.64,6.89-6.39
				c1.93-8.03,6.89-23.11,6.89-23.11L716.51,330.04z"/>
			<g>
				<path class="st1" d="M715.01,330.04c0,7.31,0,14.61,0,21.92c0,2.04-0.41,2.68,0.13,4.34c1.15,3.53,6.75,3.7,9.64,3.92
					c3.37,0.25,7.77,0.89,11.13-0.05c-1.57,0.44,0.93,0.18,1.49,0.11c1.66-0.21,2.93-1.12,4.04-2.32
					c3.47-3.72,4.04-11.35,5.45-16.08c1.23-4.11,2.53-8.2,3.86-12.27c0.3-0.92-0.5-1.92-1.45-1.9c-10.94,0.27-21.87,0.55-32.81,0.82
					c-1.93,0.05-1.94,3.05,0,3c10.94-0.27,21.87-0.55,32.81-0.82c-0.48-0.63-0.96-1.27-1.45-1.9c-2.51,7.63-4.97,15.31-6.89,23.11
					c-0.57,2.33-1.71,5.38-4.54,5.43c-0.46,0.01-0.86-0.24-1.32-0.08c-2.37,0.86-6.1,0.12-8.52,0.03c-2.17-0.08-8.59,0.05-8.59-2.57
					c0-2.22,0-4.44,0-6.66c0-6.01,0-12.03,0-18.04C718.01,328.1,715.01,328.1,715.01,330.04z"/>
			</g>
		</g>
		<g>
			<path class="st0" d="M728.83,308.62c0,0-8.4-3.96-17.07-1.79c-8.67,2.17-18.83,11.17-18,19.83c0.83,8.67,9.67,14.5,15,14.67
				c2.01,0.06,6.72,1.83,17.74,1.83c9.85,0,11.5-0.93,17.33-1.17c7.47-0.3,12.76-6,12.6-16.5s-7.33-15.83-15-15.33
				S728.83,308.62,728.83,308.62z"/>
			<g>
				<path class="st1" d="M729.59,307.33c-13.78-6.25-34.19,0.12-37.22,16.46c-1.33,7.15,4.14,13.73,9.9,17.08
					c4.75,2.77,12.1,3.08,17.46,3.55c8.46,0.74,16.8-0.35,25.21-1c7.19-0.56,11.42-6.52,12.66-13.12
					c1.36-7.28-0.73-14.88-6.86-19.27c-6.21-4.44-14.64-1.15-21.5-3.85c-1.8-0.71-2.58,2.19-0.8,2.89
					c4.47,1.76,9.43,1.69,14.14,1.57c8.61-0.24,12.41,8,12.34,15.4c-0.08,7.66-4.49,13.13-12.19,13.52
					c-6.07,0.3-11.98,1.15-18.1,1.09c-10.49-0.1-24.87-1.16-28.9-12.74c-2.84-8.16,5.48-15.42,11.77-18.85
					c6.17-3.37,14.27-3.01,20.59-0.14C729.82,310.71,731.35,308.13,729.59,307.33z"/>
			</g>
		</g>
	</g>
	<g>
		<path class="st0" d="M573.25,433.97c0,0-1.95,10.39,0,20.13c1.95,9.74,7.79,24.02,19.48,21.43c11.69-2.6,5.19-19.8,5.19-19.8
			s-3.57-13.96-1.62-23.38"/>
		<g>
			<path class="st1" d="M571.81,433.57c-1.8,10.02-1.2,20.82,2.82,30.25c3.32,7.78,11.25,17.35,20.85,12.35
				c6.74-3.51,6.31-11.72,4.73-18.12c-2.05-8.28-3.98-16.72-2.46-25.31c0.34-1.89-2.56-2.7-2.89-0.8
				c-1.38,7.76-0.29,15.82,1.45,23.44c1.01,4.44,2.53,8.51,1.59,13.17c-0.99,4.91-6.07,6.43-10.48,5.42
				c-4.86-1.12-7.8-6.41-9.72-10.55c-4.12-8.86-4.71-19.54-3-29.06C575.04,432.47,572.15,431.67,571.81,433.57L571.81,433.57z"/>
		</g>
	</g>
	<g>
		<path class="st2" d="M565.83,429.42c5.89,8.67,20.22,9.58,20.22,9.58s-2.33-3.58,0-7.25c0,0,2.11,4.42,6.44,6.42l7.67-8.75"/>
		<g>
			<path class="st1" d="M564.54,430.17c4.93,6.65,13.46,9.75,21.52,10.33c1.16,0.08,1.84-1.33,1.3-2.26c-1.05-1.79-1.01-3.59,0-5.74
				c-0.86,0-1.73,0-2.59,0c1.52,3.02,4.03,5.36,6.98,6.95c0.57,0.31,1.37,0.28,1.82-0.23c2.56-2.92,5.11-5.83,7.67-8.75
				c1.27-1.45-0.84-3.58-2.12-2.12c-2.56,2.92-5.11,5.83-7.67,8.75c0.61-0.08,1.21-0.16,1.82-0.23c-2.53-1.37-4.6-3.29-5.9-5.88
				c-0.48-0.96-2.12-1-2.59,0c-1.38,2.93-1.7,5.85,0,8.76c0.43-0.75,0.86-1.5,1.3-2.26c-6.89-0.49-14.7-3.14-18.93-8.84
				C565.99,427.13,563.38,428.62,564.54,430.17L564.54,430.17z"/>
		</g>
	</g>
</g>
</svg>
