<?xml version="1.0" encoding="utf-8"?>
<!-- Svg Vector Icons : http://www.onlinewebfonts.com/icon -->
<!DOCTYPE svg PUBLIC "-//W3C//DTD SVG 1.1//EN" "http://www.w3.org/Graphics/SVG/1.1/DTD/svg11.dtd">
<svg version="1.1" xmlns="http://www.w3.org/2000/svg" xmlns:xlink="http://www.w3.org/1999/xlink" x="0px" y="0px" viewBox="0 0 1000 1000" enable-background="new 0 0 1000 1000" xml:space="preserve">
<metadata> Svg Vector Icons : http://www.onlinewebfonts.com/icon </metadata>
<g><g transform="translate(0.000000,511.000000) scale(0.100000,-0.100000)"><path d="M4607.7,2956.9C2957.3,2845.4,1403.1,1997.2,404.1,661.6C159.3,333.7,84.9,191.6,102.4,67c32.8-244.8,671.1-1027.4,1197.9-1471.2c780.4-653.6,1705.1-1088.6,2686.6-1265.7c717-126.8,1549.8-111.5,2251.6,43.7c1429.6,317,2706.2,1184.8,3530.4,2400.2C9895.6-40.1,9900-27,9900,104.1c0,131.2-4.4,144.3-131.2,330.1c-203.3,299.5-404.4,542.1-684.2,826.3c-1001.2,1012.1-2284.3,1597.9-3714,1696.3C5016.5,2980.9,4966.2,2980.9,4607.7,2956.9z M5569.6,2137.1c1110.5-129,2142.3-627.4,2922.7-1407.8c212-212,522.5-583.7,522.5-625.2c0-10.9-52.5-87.4-115.9-166.1C8413.5-669.7,7843-1130.9,7167.5-1458.8c-478.7-233.9-889.7-360.7-1442.7-452.5c-336.6-54.6-1106.1-54.6-1442.7,0c-1088.6,177.1-2030.8,655.8-2780.6,1407.8c-185.8,190.2-476.5,529-502.8,590.2c-15.3,39.3,242.6,360.7,489.7,612.1c402.2,406.6,828.5,712.6,1350.9,970.6C3674.3,2080.3,4640.5,2246.4,5569.6,2137.1z"/><path d="M4609.9,1914.1C4041.6,1793.9,3512.6,1352.4,3296.1,819c-122.4-306-170.5-701.7-120.2-1001.2c100.6-590.2,478.7-1110.4,996.8-1370.6c463.4-231.7,1060.2-253.6,1534.6-54.6c559.6,231.7,988.1,747.6,1108.3,1333.4c32.8,161.8,48.1,607.7,21.9,636.1c-6.6,6.6-61.2-21.9-120.2-65.6c-166.1-118-378.2-183.6-599-183.6c-212,0-319.2,24-500.6,115.8c-588,297.3-756.4,1088.6-343.2,1602.3l72.1,87.4l-52.5,13.1C5200.1,1960.1,4765.1,1946.9,4609.9,1914.1z"/></g></g>
</svg>